<?xml version="1.0" standalone="no"?>
<!DOCTYPE svg PUBLIC "-//W3C//DTD SVG 20010904//EN"
 "http://www.w3.org/TR/2001/REC-SVG-20010904/DTD/svg10.dtd">
<svg version="1.0" xmlns="http://www.w3.org/2000/svg"
 width="1280.000000pt" height="1280.000000pt" viewBox="0 0 1280.000000 1280.000000"
 preserveAspectRatio="xMidYMid meet">
<g transform="translate(0.000000,1280.000000) scale(0.100000,-0.100000)"
fill="#000000" stroke="none">
<path d="M9700 9450 c-265 -24 -875 -49 -1598 -66 l-284 -6 -60 -76 c-33 -42
-161 -210 -284 -373 -260 -347 -304 -389 -304 -294 0 31 22 102 74 237 144
378 152 403 142 436 -13 40 -57 47 -306 47 -362 0 -367 -3 -456 -324 -49 -175
-315 -977 -439 -1321 -56 -157 -128 -366 -159 -465 -31 -99 -97 -299 -146
-445 -102 -304 -109 -337 -83 -369 23 -28 33 -28 298 -13 290 17 300 19 341
54 30 26 42 54 103 241 38 117 91 275 119 352 77 212 112 332 119 412 7 84 26
113 62 93 19 -9 21 -20 22 -93 0 -45 4 -131 9 -192 5 -60 16 -234 25 -385 23
-386 21 -378 57 -413 l29 -30 112 6 c62 3 189 13 282 21 275 25 305 25 343 -2
17 -13 32 -29 32 -37 0 -18 -56 -38 -195 -69 -311 -69 -397 -93 -720 -201
-545 -182 -1290 -416 -2015 -631 -124 -37 -305 -91 -404 -121 -300 -89 -495
-120 -691 -108 -330 20 -553 110 -739 299 -252 255 -326 519 -263 941 39 261
54 317 127 470 23 50 49 107 56 129 16 43 19 132 5 140 -5 3 -57 -65 -117
-152 -59 -86 -179 -259 -266 -384 -230 -329 -337 -501 -433 -693 -86 -174
-256 -561 -306 -696 -37 -101 -95 -342 -110 -454 -17 -131 -7 -381 20 -470 50
-171 176 -360 321 -482 240 -201 606 -323 972 -323 339 0 600 71 1183 323 269
116 792 359 1325 614 407 196 555 266 1175 558 632 298 806 381 1265 605 228
111 647 309 930 440 704 325 788 364 1160 545 588 285 921 442 1720 815 446
207 480 226 480 261 0 30 -38 24 -215 -32 -88 -28 -311 -97 -495 -154 -184
-57 -400 -124 -480 -149 -1120 -348 -1785 -546 -1834 -546 -54 0 -56 7 -27 93
33 94 49 90 -363 86 -193 -2 -357 0 -364 5 -16 9 -12 28 30 176 71 251 129
420 155 451 45 54 66 57 316 58 125 0 243 3 263 7 73 14 94 48 173 287 40 119
71 227 69 240 -3 22 -4 22 -158 19 -85 -2 -213 -7 -285 -11 -141 -9 -171 -4
-180 32 -7 27 43 189 116 378 48 123 73 161 126 188 12 6 140 18 289 26 360
20 351 15 440 269 23 67 50 143 60 169 27 71 20 73 -166 57z m-1305 -358 c-43
-148 -32 -116 -305 -922 -313 -925 -370 -1102 -391 -1208 -29 -143 -36 -166
-63 -191 l-24 -23 -15 24 c-11 16 -19 74 -26 198 -43 692 -54 874 -58 1021 -5
150 -4 170 14 210 21 46 221 287 572 689 113 129 224 258 246 285 22 27 49 59
60 70 l20 20 3 -23 c2 -12 -13 -80 -33 -150z"/>
<path d="M6226 9305 c-148 -13 -274 -26 -281 -29 -7 -2 -22 -42 -35 -88 -12
-46 -114 -355 -227 -688 -113 -333 -245 -724 -294 -870 -49 -146 -96 -283
-104 -305 -104 -288 -305 -892 -303 -908 5 -33 55 -39 298 -35 209 3 229 5
275 26 59 27 100 64 125 113 10 20 41 112 68 205 27 93 126 401 220 684 94
283 206 625 247 760 117 374 168 530 233 710 109 302 123 348 120 398 -3 46
-4 47 -38 49 -19 0 -156 -9 -304 -22z"/>
<path d="M5399 9286 c-211 -12 -234 -18 -263 -74 -7 -15 -66 -200 -131 -412
-64 -212 -132 -432 -151 -490 -34 -106 -87 -206 -103 -196 -5 3 -14 35 -20 71
-12 66 -10 137 19 660 5 94 10 212 10 263 0 158 -11 165 -241 152 -221 -13
-397 -29 -436 -41 -74 -23 -90 -52 -158 -274 -75 -246 -195 -605 -255 -765
-77 -204 -82 -221 -180 -555 -95 -325 -157 -508 -303 -890 -155 -407 -154
-420 31 -420 193 0 466 17 500 31 23 9 38 25 51 56 25 59 133 388 230 703 106
345 124 397 136 398 6 1 16 -20 24 -48 18 -64 17 -251 -3 -575 -9 -135 -16
-293 -16 -352 l0 -106 32 -33 32 -32 191 8 c377 14 434 19 456 41 32 33 73
145 205 569 174 554 256 803 404 1220 198 559 366 1078 355 1095 -8 12 -155
11 -416 -4z"/>
</g>
</svg>
